<?xml version="1.0" encoding="UTF-8" standalone="no"?>
<!-- Created with Inkscape (http://www.inkscape.org/) -->

<svg
   xmlns:dc="http://purl.org/dc/elements/1.1/"
   xmlns:cc="http://creativecommons.org/ns#"
   xmlns:rdf="http://www.w3.org/1999/02/22-rdf-syntax-ns#"
   xmlns:svg="http://www.w3.org/2000/svg"
   xmlns="http://www.w3.org/2000/svg"
   xmlns:inkscape="http://www.inkscape.org/namespaces/inkscape"
   version="1.1"
   width="750"
   height="750"
   id="svg2"
   xml:space="preserve"><metadata
     id="metadata8"><rdf:RDF><cc:Work
         rdf:about=""><dc:format>image/svg+xml</dc:format><dc:type
           rdf:resource="http://purl.org/dc/dcmitype/StillImage" /></cc:Work></rdf:RDF></metadata><defs
     id="defs6"><clipPath
       id="clipPath16"><path
         d="M 0,600 600,600 600,0 0,0 0,600 z"
         inkscape:connector-curvature="0"
         id="path18" /></clipPath></defs><g
     transform="matrix(1.25,0,0,-1.25,0,750)"
     id="g10"><g
       id="g12"><g
         clip-path="url(#clipPath16)"
         id="g14"><g
           transform="translate(562.4307,300.001)"
           id="g20"><path
             d="m 0,0 c 0,-142.655 -117.494,-258.3 -262.432,-258.3 -144.936,0 -262.43,115.645 -262.43,258.3 0,142.654 117.494,258.299 262.43,258.299 C -117.494,258.299 0,142.654 0,0"
             inkscape:connector-curvature="0"
             id="path22"
             style="fill:#dde3e8;fill-opacity:1;fill-rule:nonzero;stroke:none" /></g><g
           transform="translate(533.6504,300.001)"
           id="g24"><path
             d="m 0,0 c 0,-129.043 -104.608,-233.651 -233.651,-233.651 -129.042,0 -233.652,104.608 -233.652,233.651 0,129.042 104.61,233.652 233.652,233.652 C -104.608,233.652 0,129.042 0,0"
             inkscape:connector-curvature="0"
             id="path26"
             style="fill:#424449;fill-opacity:1;fill-rule:nonzero;stroke:none" /></g><g
           transform="translate(315.1963,479.0396)"
           id="g28"><path
             d="m 0,0 c 0,-8.393 -6.804,-15.196 -15.197,-15.196 -8.393,0 -15.196,6.803 -15.196,15.196 0,8.393 6.803,15.197 15.196,15.197 C -6.804,15.197 0,8.393 0,0"
             inkscape:connector-curvature="0"
             id="path30"
             style="fill:#dde3e8;fill-opacity:1;fill-rule:nonzero;stroke:none" /></g><g
           transform="translate(223.6396,462.6519)"
           id="g32"><path
             d="m 0,0 c 4.196,-7.268 1.707,-16.563 -5.561,-20.759 -7.269,-4.197 -16.563,-1.706 -20.761,5.562 -4.196,7.268 -1.705,16.563 5.563,20.76 C -13.491,9.759 -4.196,7.268 0,0"
             inkscape:connector-curvature="0"
             id="path34"
             style="fill:#dde3e8;fill-opacity:1;fill-rule:nonzero;stroke:none" /></g><g
           transform="translate(152.5454,402.6812)"
           id="g36"><path
             d="m 0,0 c 7.268,-4.196 9.759,-13.49 5.563,-20.758 -4.198,-7.27 -13.493,-9.759 -20.761,-5.564 -7.268,4.197 -9.759,13.491 -5.562,20.759 C -16.564,1.706 -7.268,4.196 0,0"
             inkscape:connector-curvature="0"
             id="path38"
             style="fill:#dde3e8;fill-opacity:1;fill-rule:nonzero;stroke:none" /></g><g
           transform="translate(120.9604,315.1982)"
           id="g40"><path
             d="m 0,0 c 8.392,0 15.195,-6.803 15.196,-15.197 -10e-4,-8.394 -6.806,-15.197 -15.197,-15.198 -8.393,0 -15.197,6.805 -15.197,15.198 C -15.198,-6.805 -8.393,0 0,0"
             inkscape:connector-curvature="0"
             id="path42"
             style="fill:#dde3e8;fill-opacity:1;fill-rule:nonzero;stroke:none" /></g><g
           transform="translate(137.3472,223.6436)"
           id="g44"><path
             d="m 0,0 c 7.268,4.196 16.562,1.705 20.76,-5.563 4.195,-7.27 1.703,-16.564 -5.564,-20.76 C 7.928,-30.52 -1.367,-28.028 -5.563,-20.761 -9.759,-13.492 -7.268,-4.196 0,0"
             inkscape:connector-curvature="0"
             id="path46"
             style="fill:#dde3e8;fill-opacity:1;fill-rule:nonzero;stroke:none" /></g><g
           transform="translate(197.3154,152.5469)"
           id="g48"><path
             d="M 0,0 C 4.196,7.269 13.49,9.759 20.76,5.563 28.029,1.364 30.518,-7.93 26.323,-15.197 22.127,-22.466 12.832,-24.956 5.564,-20.76 -1.704,-16.564 -4.196,-7.268 0,0"
             inkscape:connector-curvature="0"
             id="path50"
             style="fill:#dde3e8;fill-opacity:1;fill-rule:nonzero;stroke:none" /></g><g
           transform="translate(284.7979,120.96)"
           id="g52"><path
             d="M 0,0 C 0,8.393 6.805,15.198 15.198,15.198 23.594,15.196 30.395,8.393 30.396,0 30.396,-8.393 23.592,-15.196 15.199,-15.196 6.808,-15.196 0,-8.393 0,0"
             inkscape:connector-curvature="0"
             id="path54"
             style="fill:#dde3e8;fill-opacity:1;fill-rule:nonzero;stroke:none" /></g><g
           transform="translate(376.3535,137.3467)"
           id="g56"><path
             d="m 0,0 c -4.196,7.269 -1.705,16.564 5.563,20.761 7.272,4.196 16.564,1.705 20.76,-5.563 C 30.52,7.93 28.03,-1.364 20.762,-5.56 13.494,-9.756 4.196,-7.269 0,0"
             inkscape:connector-curvature="0"
             id="path58"
             style="fill:#dde3e8;fill-opacity:1;fill-rule:nonzero;stroke:none" /></g><g
           transform="translate(447.4502,197.3145)"
           id="g60"><path
             d="m 0,0 c -7.269,4.196 -9.759,13.493 -5.563,20.761 4.201,7.27 13.493,9.759 20.76,5.562 7.269,-4.196 9.76,-13.488 5.564,-20.756 C 16.564,-1.701 7.268,-4.195 0,0"
             inkscape:connector-curvature="0"
             id="path62"
             style="fill:#dde3e8;fill-opacity:1;fill-rule:nonzero;stroke:none" /></g><g
           transform="translate(479.0371,284.7979)"
           id="g64"><path
             d="m 0,0 c -8.393,0 -15.197,6.806 -15.197,15.197 0.003,8.397 6.804,15.199 15.197,15.199 8.393,0 15.195,-6.802 15.195,-15.195 C 15.195,6.81 8.393,0 0,0"
             inkscape:connector-curvature="0"
             id="path66"
             style="fill:#dde3e8;fill-opacity:1;fill-rule:nonzero;stroke:none" /></g><g
           transform="translate(462.6504,376.3545)"
           id="g68"><path
             d="m 0,0 c -7.268,-4.197 -16.564,-1.705 -20.761,5.563 -4.193,7.272 -1.705,16.563 5.564,20.76 C -7.93,30.519 1.364,28.03 5.561,20.762 9.757,13.494 7.269,4.195 0,0"
             inkscape:connector-curvature="0"
             id="path70"
             style="fill:#dde3e8;fill-opacity:1;fill-rule:nonzero;stroke:none" /></g><g
           transform="translate(402.6826,447.4507)"
           id="g72"><path
             d="m 0,0 c -4.196,-7.268 -13.492,-9.759 -20.761,-5.563 -7.268,4.202 -9.759,13.493 -5.562,20.761 4.196,7.268 13.488,9.759 20.756,5.562 C 1.701,16.564 4.196,7.268 0,0"
             inkscape:connector-curvature="0"
             id="path74"
             style="fill:#dde3e8;fill-opacity:1;fill-rule:nonzero;stroke:none" /></g><g
           transform="translate(292.9375,299.5781)"
           id="g76"><path
             d="m 0,0 c 0,-3.977 3.16,-7.199 7.059,-7.199 3.898,0 7.058,3.222 7.058,7.199 l 0,133.077 c 0,3.976 -3.16,7.199 -7.058,7.199 C 3.16,140.276 0,137.053 0,133.077 L 0,0 z"
             inkscape:connector-curvature="0"
             id="path78"
             style="fill:#dde3e8;fill-opacity:1;fill-rule:nonzero;stroke:none" /></g><g
           transform="translate(415.2373,291.7393)"
           id="g80"><path
             d="M 0,0 C 3.465,0.001 6.273,3.58 6.274,8 6.273,12.419 3.463,16.002 0,16 l -116.022,0.002 c -3.468,-0.002 -6.279,-3.583 -6.278,-8.001 -0.001,-4.42 2.81,-8 6.275,-8 L 0,0 z"
             inkscape:connector-curvature="0"
             id="path82"
             style="fill:#dde3e8;fill-opacity:1;fill-rule:nonzero;stroke:none" /></g></g></g></g></svg>